Coordinates
version=1
nRows=17
nColumns=36
inDegrees=yes

Units are S.I. units (second, meters, Newtons, ...)
If the header above contains a line with 'inDegrees', this indicates whether rotational values are in degrees (yes) or radians (no).

endheader
time	pelvis_tilt	pelvis_list	pelvis_rotation	pelvis_tx	pelvis_ty	pelvis_tz	hip_flexion_r	hip_adduction_r	hip_rotation_r	knee_angle_r	knee_angle_r_beta	ankle_angle_r	subtalar_angle_r	mtp_angle_r	hip_flexion_l	hip_adduction_l	hip_rotation_l	knee_angle_l	knee_angle_l_beta	ankle_angle_l	subtalar_angle_l	mtp_angle_l	lumbar_extension	lumbar_bending	lumbar_rotation	arm_flex_r	arm_add_r	arm_rot_r	elbow_flex_r	pro_sup_r	arm_flex_l	arm_add_l	arm_rot_l	elbow_flex_l	pro_sup_l
      1.73333330	     -6.19701596	     -1.45064799	     -3.16845268	      0.00649619	      1.23491402	      0.04000885	      4.97092628	      2.43958255	      0.29988190	      1.09030649	      0.01902944	      7.06304304	     -6.93772202	     -7.49999983	      4.41723297	     -2.02973345	     -8.97508640	      0.30228719	      0.00527591	     10.12945059	     -2.85124383	     -7.49999983	      0.95397332	      2.82776116	     -1.75036243	     15.32601565	     -2.79089144	     47.11222617	     46.69755782	     78.56053689	     15.98717060	     -6.04400022	     50.07594777	     50.78898843	     82.31838462
      1.75000000	     -6.23754534	     -1.50261343	     -3.23531558	      0.00758075	      1.22953909	      0.04055119	      5.01475262	      2.50705480	      0.49089841	      1.10660732	      0.01931394	      7.07232388	     -7.00460033	     -7.49999984	      4.45454054	     -2.05971008	     -8.99857633	      0.30353245	      0.00529764	     10.26476872	     -2.68991861	     -7.49999984	      0.96001968	      2.87078805	     -1.39187494	     15.09876358	     -2.80551112	     45.75313886	     46.93372825	     81.93820253	     16.34316937	     -5.96416683	     50.56094437	     50.78724452	     85.80441155
      1.76666670	     -6.20124502	     -1.53513581	     -3.19885594	      0.00743931	      1.22600017	      0.04008808	      4.97544777	      2.54783247	      0.39753490	      1.17625308	      0.02052949	      6.99963075	     -6.95714430	     -7.49999985	      4.37646429	     -2.05020460	     -8.75738232	      0.30778882	      0.00537193	     10.30778563	     -2.93176971	     -7.49999985	      0.90858752	      2.92992551	     -1.53666847	     15.28959631	     -2.71310149	     45.49029201	     47.00756607	     81.10788867	     16.37977614	     -5.95456700	     50.32392853	     50.98769102	     84.76592267
      1.78333330	     -6.36070820	     -1.49345137	     -3.29732038	      0.00745509	      1.22936004	      0.04037050	      5.22539887	      2.50205636	      0.45572161	      1.20998491	      0.02111822	      7.12067118	     -6.87791645	     -7.49999985	      4.48762936	     -2.00717822	     -8.80737141	      0.31401777	      0.00548064	     10.28861872	     -2.93464722	     -7.49999985	      1.07380067	      2.95505043	     -1.48573475	     15.33683052	     -2.64378248	     45.36196535	     47.11114452	     80.69455587	     16.32349843	     -5.98226896	     50.31781143	     51.18197424	     84.21613364
      1.80000000	     -6.26228053	     -1.45881695	     -3.33380953	      0.00756929	      1.23252900	      0.04072206	      5.15128796	      2.42626002	      0.47968457	      1.14779782	      0.02003285	      7.22052422	     -6.75561043	     -7.49999985	      4.32910912	     -1.98107962	     -8.81509008	      0.31199140	      0.00544528	     10.24828665	     -3.12587130	     -7.49999985	      0.96641065	      2.88888297	     -1.47028667	     15.33770743	     -2.61883890	     45.16011902	     46.93703001	     79.81659926	     16.36175858	     -5.96768872	     50.33990087	     51.15285408	     83.13495765
      1.81666670	     -6.45300630	     -1.43553855	     -3.31702316	      0.00826606	      1.23070034	      0.04104172	      5.35451158	      2.43894384	      0.52834633	      1.13421364	      0.01979576	      7.27389566	     -6.56658220	     -7.49999985	      4.53720928	     -1.97649417	     -8.70574422	      0.30958918	      0.00540335	     10.39377399	     -3.08928475	     -7.49999985	      1.20703306	      2.87134169	     -1.52150625	     15.20519042	     -2.67977170	     45.11886084	     46.99148064	     79.69854537	     16.27338945	     -6.00945598	     50.37230665	     51.26702865	     82.99674942
      1.83333330	     -6.39494761	     -1.40029440	     -3.30161945	      0.00716839	      1.22825143	      0.04071940	      5.27167751	      2.43245957	      0.70436302	      1.05411591	      0.01839779	      7.30828836	     -6.54389576	     -7.49999986	      4.48358667	     -1.96188094	     -8.82015405	      0.30951652	      0.00540208	     10.36424177	     -3.17159665	     -7.49999986	      1.07761748	      2.78510593	     -1.50798001	     15.19387187	     -2.55075654	     44.77184261	     46.64703719	     78.72811121	     16.40815978	     -5.99100229	     50.47153990	     51.19963127	     81.90646249
      1.85000000	     -6.41394367	     -1.39529597	     -3.34560842	      0.00715426	      1.23286036	      0.04138498	      5.28661407	      2.43482691	      0.58657963	      1.04136801	      0.01817530	      7.29934238	     -6.44732554	     -7.49999986	      4.54679110	     -1.99626651	     -8.86436320	      0.29979734	      0.00523245	     10.22091915	     -3.31975949	     -7.49999986	      1.08330502	      2.78995596	     -1.52351954	     14.98050526	     -2.55441966	     44.58156311	     46.63447120	     78.09228714	     16.34832556	     -6.04185012	     50.54930500	     51.24481006	     81.17248847
      1.86666670	     -6.39046306	     -1.41425833	     -3.34087207	      0.00857396	      1.22983720	      0.04144405	      5.21937675	      2.48084886	      0.43185774	      1.05762631	      0.01845906	      7.19977066	     -6.32312750	     -7.49999986	      4.49178076	     -2.01404682	     -8.94895935	      0.30293938	      0.00528729	     10.24069176	     -3.27158928	     -7.49999986	      1.02539210	      2.75445243	     -1.48263206	     14.93819804	     -2.53395992	     44.42695360	     46.49419168	     76.86581034	     16.41911888	     -6.05479820	     50.71816025	     51.23351727	     79.77065616
      1.88333330	     -6.47800671	     -1.40311809	     -3.42029790	      0.00701685	      1.22631574	      0.04118565	      5.35727603	      2.50087732	      0.62360818	      1.09293007	      0.01907523	      7.22654465	     -6.41662576	     -7.49999986	      4.59171526	     -2.02392217	     -8.94819839	      0.29979277	      0.00523237	     10.14120769	     -3.47633405	     -7.49999986	      1.02251509	      2.74852227	     -1.40163473	     14.92958805	     -2.52769158	     44.24583148	     46.65000597	     75.85014379	     16.55300785	     -6.06719321	     50.76991862	     51.44006145	     78.66027364
      1.90000000	     -6.48620044	     -1.40811602	     -3.40054308	      0.00734039	      1.22573060	      0.04121386	      5.36870979	      2.49495514	      0.49014719	      1.08196934	      0.01888393	      7.14011602	     -6.57414652	     -7.49999986	      4.58103009	     -2.02011226	     -8.83829806	      0.30578164	      0.00533690	     10.15944396	     -3.48306050	     -7.49999986	      1.01904960	      2.73352968	     -1.42661353	     14.99575834	     -2.47359609	     44.24117853	     46.47350510	     75.86550644	     16.66202659	     -6.05235550	     50.97672491	     51.38546777	     78.72660890
      1.91666670	     -6.67254547	     -1.39571010	     -3.46905982	      0.00779106	      1.22575537	      0.04108025	      5.59642244	      2.49800196	      0.64049132	      1.11322854	      0.01942950	      7.06258172	     -6.91900458	     -7.49999987	      4.74347186	     -2.01279183	     -8.92334939	      0.31182004	      0.00544229	     10.29454961	     -3.36070882	     -7.49999987	      1.15197500	      2.72734971	     -1.37239620	     14.77255594	     -2.37816236	     43.15167493	     46.47865466	     82.66677970	     16.47270450	     -5.99677260	     49.98112736	     51.42292607	     86.62392290
      1.93333330	     -6.70162472	     -1.37229890	     -3.55319722	      0.00703120	      1.23027189	      0.04151082	      5.62105632	      2.47806291	      0.57626629	      1.17238378	      0.02046196	      7.19865072	     -6.63151943	     -7.49999987	      4.83244654	     -2.00359332	     -8.91742677	      0.31144163	      0.00543568	     10.28668988	     -3.17708111	     -7.49999987	      1.14394107	      2.69278481	     -1.35488004	     14.58115210	     -2.38023154	     43.28380980	     46.32325139	     81.28183979	     16.42530340	     -5.92794807	     50.08923405	     51.18275993	     84.89936512
      1.95000000	     -6.84015908	     -1.34327183	     -3.59682635	      0.00771658	      1.22908709	      0.04166161	      5.73012674	      2.47025991	      0.49112829	      1.20891626	      0.02109957	      7.14403782	     -6.60439015	     -7.49999987	      5.01495754	     -1.97959966	     -8.82630334	      0.31549669	      0.00550646	     10.24916658	     -3.10290487	     -7.49999987	      1.25921516	      2.65468863	     -1.38951257	     14.40781424	     -2.39234705	     43.35941056	     46.40288816	     81.10208237	     16.31470031	     -5.96498126	     50.15442039	     51.25358392	     84.67969020
      1.96666670	     -6.69633980	     -1.29081037	     -3.72542447	      0.00819310	      1.23220033	      0.04219340	      5.53376507	      2.42023151	      0.56011266	      1.22066488	      0.02130462	      6.74224496	     -7.21415233	     -7.49999987	      4.82434806	     -1.93815173	     -9.02084223	      0.32058324	      0.00559523	     10.09715766	     -3.00217480	     -7.49999987	      1.04319604	      2.57988441	     -1.30729291	     14.37327363	     -2.33687559	     43.74262160	     46.06746454	     80.97634744	     16.34646271	     -5.93061551	     50.29299851	     50.94114115	     84.55176903
      1.98333330	     -6.70056466	     -1.30802144	     -3.80682466	      0.00899703	      1.23746475	      0.04154417	      5.49225619	      2.44118739	      0.17294834	      1.16895385	      0.02040209	      6.75700298	     -6.80407354	     -7.49999987	      4.84476823	     -1.96334712	     -9.10042829	      0.30233334	      0.00527671	      9.98188333	     -2.96200679	     -7.49999987	      0.97028166	      2.63358221	     -1.25378898	     14.37154378	     -2.27239481	     43.84805130	     45.88407455	     78.86309125	     16.29750698	     -5.79576227	     50.41275820	     50.54168847	     82.15353808
      2.00000000	     -6.72651778	     -1.27705758	     -3.89392513	      0.01066766	      1.23932852	      0.04135589	      5.44579332	      2.43410764	      0.31984770	      1.06511772	      0.01858981	      6.36423762	     -7.14021593	     -7.49999987	      4.81564755	     -1.92782793	     -9.36635771	      0.29146696	      0.00508706	      9.92256955	     -2.48006642	     -7.49999987	      0.97816419	      2.58493878	     -1.28201828	     14.23282071	     -2.26409266	     44.31002284	     45.48890056	     78.63093217	     16.13986470	     -5.80568814	     50.48757206	     50.19500450	     81.99608578
